<?xml version="1.0" encoding="UTF-8" standalone="no"?>
<svg
   xmlns:dc="http://purl.org/dc/elements/1.1/"
   xmlns:cc="http://creativecommons.org/ns#"
   xmlns:rdf="http://www.w3.org/1999/02/22-rdf-syntax-ns#"
   xmlns:svg="http://www.w3.org/2000/svg"
   xmlns="http://www.w3.org/2000/svg"
   viewBox="0 0 1085 338.75"
   height="338.75"
   width="1085"
   version="1.1"
   id="svg3422">
  <metadata
     id="metadata3428">
    <rdf:RDF>
      <cc:Work
         rdf:about="">
        <dc:format>image/svg+xml</dc:format>
        <dc:type
           rdf:resource="http://purl.org/dc/dcmitype/StillImage" />
        <dc:title></dc:title>
      </cc:Work>
    </rdf:RDF>
  </metadata>
  <defs
     id="defs3426" />
  <path
     id="path3432"
     d="m 419.41353,336.9022 c -2.20494,-2.43642 -2.20427,-7.26238 0.001,-12.84077 0.72562,-1.83485 0.15011,-2.1875 -3.56988,-2.1875 -2.43924,0 -4.71675,-0.45592 -5.06114,-1.01316 -0.3444,-0.55725 -0.74377,-4.07288 -0.88751,-7.8125 -0.14372,-3.73964 -0.64041,-7.36184 -1.10374,-8.04934 -3.71101,-5.50651 -4.8065,-24.06249 -2.04621,-34.65995 2.09969,-8.06127 1.08856,-14.15451 -2.95626,-17.81504 -1.90715,-1.72593 -3.87226,-2.08888 -8.7647,-1.61878 -5.81964,0.5592 -6.36358,0.37807 -7.04746,-2.34674 -1.12528,-4.48349 2.44115,-8.92048 7.96255,-9.90619 11.62593,-2.07555 17.02552,-10.83552 18.13428,-29.42001 0.71745,-12.02551 4.45127,-23.46362 8.01398,-24.54996 2.54894,-0.77723 6.32953,4.63914 8.40762,12.04545 2.39622,8.54005 2.5796,16.53532 0.51052,22.25727 -1.27395,3.52308 -1.19442,4.47469 0.51706,6.18616 1.67626,1.67627 2.71518,1.78118 6.06709,0.6127 8.4414,-2.94268 13.67141,-0.65957 13.67141,5.96815 0,4.31499 -4.39476,6.97805 -9.62126,5.83013 -9.22463,-2.02608 -14.97653,10.58854 -13.64123,29.91681 0.99593,14.41593 1.36312,16.15421 4.47639,21.19159 4.91494,7.95254 14.54205,11.1866 20.09926,6.752 6.90565,-5.51064 12.58433,-8.56859 15.912,-8.56859 5.4861,0 6.7153,2.08485 4.03879,6.85015 -1.25337,2.23154 -3.03489,5.40003 -3.9589,7.04109 -0.92402,1.64107 -1.97506,3.26501 -2.33564,3.60876 -0.36057,0.34375 -2.04711,3.29687 -3.74785,6.5625 -1.70075,3.26563 -3.42461,5.9375 -3.83081,5.9375 -0.4062,0 -1.81341,2.24355 -3.12715,4.98566 -1.31372,2.74212 -2.81047,4.99212 -3.3261,5 -0.51562,0.007 -0.9375,0.63652 -0.9375,1.39697 0,0.76043 -1.73476,3.57293 -3.85504,6.25 -3.33795,4.21449 -4.53116,4.86737 -8.89572,4.86737 -4.7154,0 -5.00176,-0.20358 -4.4376,-3.15484 0.88112,-4.60931 -0.87606,-4.85697 -4.24048,-0.59766 -3.41566,4.3242 -7.24083,4.79435 -10.42057,1.28077 z m 15.33392,-15.19784 c 0.45653,-2.37053 -3.36024,-4.20471 -5.10951,-2.45543 -1.80631,1.80631 0.0484,5.37121 2.54436,4.89053 1.19731,-0.23058 2.35163,-1.32638 2.56515,-2.4351 z m -25.98451,-76.08043 c 0,-0.6875 -0.5293,-1.25 -1.17623,-1.25 -0.64692,0 -1.52387,0.5625 -1.94877,1.25 -0.4249,0.6875 0.10437,1.25 1.17623,1.25 1.07182,0 1.94877,-0.5625 1.94877,-1.25 z m -112.43981,82.57709 c -1.68565,-1.28892 -5.17555,-3.04009 -7.75535,-3.8915 -4.00707,-1.32245 -5.1478,-1.2484 -7.8287,0.5082 -1.726,1.13091 -4.19579,2.05621 -5.48843,2.05621 -2.43311,0 -6.48771,-3.6338 -6.48771,-5.81441 0,-0.6834 -1.6596,-4.6686 -3.688,-8.856 -3.63532,-7.50469 -9.28719,-14.07959 -12.10299,-14.07959 -1.36385,0 -2.95901,-2.70243 -2.95901,-5.01295 0,-2.07001 3.97301,-4.98705 6.79239,-4.98705 1.5751,0 6.98224,3.03789 12.01585,6.75087 5.03361,3.71298 11.29846,7.45927 13.92188,8.32508 2.62344,0.86581 4.76988,1.98319 4.76988,2.48306 0,0.49988 4.07812,1.1527 9.0625,1.45073 8.00185,0.47842 9.78816,0.15435 15.26274,-2.76907 8.5359,-4.55813 12.23318,-11.52642 11.45941,-21.59755 -0.40844,-5.31613 -1.43064,-8.37907 -3.85875,-11.5625 -3.07346,-4.02952 -3.78848,-4.33062 -10.28368,-4.33062 -7.76459,0 -9.46124,-1.21215 -15.92187,-11.37519 -2.2538,-3.54537 -7.0116,-7.88218 -13.38854,-12.20382 -12.68698,-8.59799 -16.8075,-14.96916 -16.48892,-25.49535 0.39817,-13.15675 6.09746,-18.1682 24.52103,-21.56166 4.95609,-0.91286 10.81478,-2.22194 13.01929,-2.90904 2.20451,-0.68711 5.09415,-0.96531 6.42143,-0.61822 1.32726,0.34708 2.79115,0.0196 3.25306,-0.72783 1.34499,-2.17625 7.11661,-1.58377 13.1923,1.35421 3.09375,1.49603 6.75,3.11383 8.125,3.59512 2.23979,0.78397 10.01937,4.197 17.84622,7.82942 3.46365,1.60745 5.11659,6.91356 2.63547,8.46005 -3.18569,1.98564 -12.70762,2.77716 -16.63262,1.3826 -12.74616,-4.52873 -42.6393,-3.92703 -48.52626,0.97675 -0.50995,0.42479 1.34763,2.6538 4.12795,4.95337 2.78034,2.29957 6.40079,6.83653 8.04545,10.08212 4.4844,8.84952 8.95198,13.50551 16.73314,17.43878 3.86135,1.95188 9.67751,6.13447 12.9248,9.29465 6.57375,6.39744 13.44114,17.43789 13.45912,21.63777 0.006,1.5063 0.57423,3.08637 1.26173,3.51127 1.6052,0.99208 1.60216,11.18211 -0.005,16.96783 -1.48566,5.34812 -6.20809,10.1097 -10.49306,10.58007 -1.70997,0.1877 -3.66805,0.68678 -4.35129,1.10904 -1.7532,1.08354 -5.15058,8.18211 -5.15058,10.76175 0,1.18777 -1.84818,3.56926 -4.10707,5.2922 -5.39663,4.11621 -18.5169,4.67357 -23.33274,0.9912 z m 18.79205,-1.32709 c 1.91454,0 1.3116,-2.02541 -2.19928,-7.38783 -4.16756,-6.36541 -5.75168,-6.50778 -4.72545,-0.42467 1.35163,8.01194 1.93632,9.2863 3.91265,8.5279 1.02536,-0.39347 2.3808,-0.7154 3.01208,-0.7154 z m -23.85224,-14.76849 c 0,-1.25789 -8.82585,-5.57232 -9.67074,-4.72745 -0.64014,0.64014 7.10703,5.73317 8.73324,5.74126 0.51562,0.003 0.9375,-0.45363 0.9375,-1.01381 z m 3.75,-81.4577 c 0,-1.66814 -1.12174,-2.74515 -3.4375,-3.30042 -1.89063,-0.45333 -5.01249,-1.61803 -6.93748,-2.58822 -3.3703,-1.69863 -8.37502,-1.24976 -8.37502,0.75115 0,0.53233 3.40188,1.99787 7.55971,3.25675 4.15785,1.2589 7.8473,2.75422 8.19878,3.32292 1.18706,1.92071 2.99151,1.0508 2.99151,-1.44218 z m 1.25,-23.77381 c 0,-0.6875 -0.5625,-1.25 -1.25,-1.25 -0.6875,0 -1.25,0.5625 -1.25,1.25 0,0.6875 0.5625,1.25 1.25,1.25 0.6875,0 1.25,-0.5625 1.25,-1.25 z m 475.95092,122.1875 c -1.15503,-3.18554 1.47339,-64.60163 3.41039,-79.6875 1.10341,-8.59375 2.51738,-21.53125 3.14214,-28.75 0.62476,-7.21875 1.68994,-16.78125 2.36707,-21.25001 0.67713,-4.46875 1.87019,-14.00826 2.65124,-21.19892 0.78106,-7.19067 1.87851,-13.94067 2.43881,-15 0.56029,-1.05934 1.42847,-9.65602 1.9293,-19.1037 0.78722,-14.8503 0.6323,-17.60237 -1.14346,-20.31251 -1.58921,-2.42545 -3.11647,-3.13487 -6.74883,-3.13487 -4.12065,0 -5.61769,0.95541 -12.2413,7.8125 -4.15059,4.29687 -9.15354,10.0625 -11.11769,12.8125 -1.96415,2.75 -4.5859,5.99422 -5.82613,7.2094 -3.19685,3.13229 -15.80141,22.4855 -17.87177,27.44057 -3.6469,8.72827 -13.98998,13.49759 -20.10005,9.2684 -1.3561,-0.93865 -3.6569,-2.07795 -5.11289,-2.53178 -2.39294,-0.74589 -2.72791,-0.217 -3.48704,5.50556 -1.10679,8.34335 -2.76503,12.48285 -5.00054,12.48285 -2.36898,0 -3.27116,-3.0452 -2.96772,-10.01721 0.17777,-4.08467 -0.50191,-6.66147 -2.47176,-9.37083 -2.3294,-3.20392 -2.9973,-6.99755 -4.68235,-26.59575 -1.93927,-22.55467 -3.16363,-29.01621 -5.49812,-29.01621 -0.65541,0 -2.12161,-0.92996 -3.25823,-2.06659 -1.58714,-1.58713 -2.0118,-4.12468 -1.83045,-10.9375 0.37935,-14.250847 0.41046,-14.283012 -4.90184,5.06781 -1.34965,4.9163 -3.01544,9.9788 -3.70174,11.25 -0.6863,1.2712 -1.93121,5.84337 -2.76646,10.16037 -0.83525,4.317 -2.00079,8.14707 -2.59008,8.51127 -0.58927,0.3642 -1.07142,2.35346 -1.07142,4.42059 0,2.06712 -0.513,4.71695 -1.14,5.8885 -0.62699,1.17156 -2.06519,6.61895 -3.196,12.10532 -1.1308,5.48638 -2.58655,10.5096 -3.235,11.16273 -0.64845,0.65313 -1.179,2.94355 -1.179,5.08983 0,2.14627 -0.81215,6.39314 -1.80479,9.4375 -0.99262,3.04435 -2.41414,9.67881 -3.15891,14.74323 -0.74478,5.06444 -1.90138,10.23059 -2.57023,11.48032 -0.66883,1.24976 -1.21607,4.19407 -1.21607,6.54293 0,2.34885 -0.55939,5.90145 -1.24309,7.89467 -1.34177,3.91173 -3.15195,14.34253 -5.07591,29.24903 -0.66551,5.15625 -2.04724,12.27407 -3.07051,15.81739 -1.02327,3.54331 -1.86049,9.76933 -1.86049,13.83562 0,8.54415 -2.85493,19.29803 -5.76421,21.71253 -1.70508,1.41508 -2.27653,1.29681 -3.80592,-0.78773 -0.98977,-1.34905 -1.54406,-3.43719 -1.23176,-4.64031 0.42023,-1.61884 -0.18755,-2.1875 -2.3379,-2.1875 -1.59816,0 -3.93612,-0.39331 -5.19547,-0.87404 -1.72858,-0.65982 -1.43269,0.14689 1.20731,3.29169 3.74729,4.46379 3.96391,7.17689 0.73535,9.2098 -3.06755,1.93154 -5.72475,0.27301 -8.60365,-5.37011 -1.43506,-2.81295 -5.67923,-8.30948 -9.43148,-12.21449 -3.75225,-3.90501 -6.82227,-7.16747 -6.82227,-7.24991 0,-0.0824 2.5715,-1.47247 5.71444,-3.08894 7.21711,-3.7119 12.12269,-11.452 11.55252,-18.22778 -0.61747,-7.33795 -3.51696,-6.92487 -3.51696,0.50104 0,6.01864 -3.35677,12.77274 -6.34801,12.77274 -1.70678,0 0.0506,-21.17116 2.11716,-25.50455 0.95196,-1.99625 1.73085,-5.20416 1.73085,-7.12868 0,-1.92452 0.63254,-5.07248 1.40564,-6.99546 2.59124,-6.4453 3.30076,-8.46677 4.95645,-14.12131 0.90588,-3.09375 2.6575,-7.47024 3.89249,-9.72553 1.23498,-2.25528 2.24542,-4.93478 2.24542,-5.95446 0,-1.01966 0.49207,-2.83067 1.0935,-4.02447 4.35916,-8.65268 6.4065,-13.1983 6.4065,-14.22406 0,-0.65574 1.125,-3.52074 2.5,-6.36667 1.375,-2.84591 2.5,-6.16055 2.5,-7.36583 0,-1.2053 0.5625,-2.53909 1.25,-2.96399 0.6875,-0.4249 1.25,-1.91818 1.25,-3.3184 0,-1.40023 0.79765,-4.03891 1.77256,-5.86374 1.60927,-3.01221 4.20761,-14.09074 6.78823,-28.94286 0.53755,-3.09375 1.60768,-7.59375 2.37807,-10 1.31988,-4.12253 4.35544,-16.49809 6.43878,-26.25 0.51406,-2.40625 1.5216,-5.5 2.23897,-6.875 0.71738,-1.375 1.7062,-4.749998 2.19739,-7.499998 0.49119,-2.75 1.64193,-6.6875 2.55719,-8.75 0.91527,-2.0625 2.3819,-6.705561 3.25917,-10.317915 1.79567,-7.39404 5.71965,-12.099374 8.60374,-10.316915 1.56989,0.970244 1.5872,1.9516 0.12578,7.129965 -0.93208,3.302676 -2.16864,8.817365 -2.74792,12.254865 -0.57928,3.4375 -1.90655,10.1875 -2.94948,15 -1.04294,4.812498 -2.47348,11.976898 -3.17898,15.920878 -0.70551,3.94399 -1.83416,8.62123 -2.50812,10.39388 -1.49655,3.93623 -1.6039,9.31024 -0.18598,9.31024 1.04016,0 2.45536,-4.76993 5.93384,-20 1.02064,-4.46875 2.37961,-9.8125 3.01994,-11.875 6.28221,-20.235117 7.96221,-36.860203 4.291,-42.463183 -1.0812,-1.650125 -1.78433,-4.58346 -1.5625,-6.518521 0.33912,-2.95829 0.90072,-3.447764 3.52832,-3.075183 10.39998,1.474674 22.07058,13.134895 23.23264,23.211986 0.94625,8.205658 2.99236,20.450297 3.74509,22.41187 0.43436,1.131918 1.36472,2.058033 2.06747,2.058033 0.81709,0 0.98325,-2.602716 0.46091,-7.219588 -0.62132,-5.491811 -0.36456,-7.810203 1.07292,-9.6875 1.86167,-2.431295 1.92763,-2.421546 4.44601,0.657088 2.36166,2.887059 2.48182,4.076768 1.57814,15.625 -1.83732,23.478928 -0.86477,51.912798 1.80607,52.803088 0.74509,0.24836 5.20469,-3.30423 9.91023,-7.89464 11.37635,-11.09801 35.53133,-33.37433 44.62953,-41.15845 11.66724,-9.982104 18.63947,-14.391129 23.96232,-15.153037 8.12385,-1.162839 12.59636,-3.86375 18.92882,-11.430957 11.68602,-13.96461 15.17341,-16.277445 18.90985,-12.541004 2.29981,2.299819 1.78471,10.541513 -1,16 -1.375,2.695222 -2.5,6.370222 -2.5,8.166665 0,2.229205 -1.58753,4.691414 -5,7.754854 -2.75,2.468726 -5,5.240069 -5,6.158539 0,2.63776 2.1368,1.9438 2.89061,-0.93878 0.7742,-2.96051 5.50848,-2.811607 4.82809,0.15186 -0.22346,0.97331 -1.21041,8.25175 -2.19321,16.1743 -0.9828,7.92255 -2.29699,16.0928 -2.9204,18.1561 -0.62343,2.0633 -1.47693,8.53271 -1.89668,14.37646 -0.41975,5.84375 -1.2832,13.71875 -1.91877,17.5 -0.63559,3.78125 -1.7568,12.78125 -2.4916,20 -0.7348,7.21875 -2.16979,19.59376 -3.18888,27.50001 -1.01909,7.90625 -3.00181,30.40625 -4.40603,50 -2.70227,37.7056 -3.72189,43.75 -7.38014,43.75 -1.70543,0 -2.2109,-0.96003 -2.13901,-4.0625 0.33216,-14.33432 -0.53052,-24.86315 -1.99648,-24.36688 -1.15812,0.39207 -1.45192,4.05844 -1.13525,14.16667 0.40915,13.06006 -0.82579,20.51271 -3.39902,20.51271 -1.89223,0 -3.55494,-6.52542 -2.9462,-11.5625 0.68295,-5.6512 -1.28823,-6.17345 -3.46509,-0.91804 -1.08333,2.61538 -1.2966,6.80454 -0.69661,13.68264 0.56206,6.44343 0.38381,10.8118 -0.50928,12.48054 -1.51384,2.82863 -5.69264,3.4663 -6.58512,1.00486 z M 616.26294,296.17515 c 0,-0.99067 -0.5625,-1.80122 -1.25,-1.80122 -0.6875,0 -1.25,1.1582 -1.25,2.57377 0,1.41558 0.5625,2.22613 1.25,1.80123 0.6875,-0.4249 1.25,-1.5831 1.25,-2.57378 z M 793.7767,269.06143 c 0.007,-0.85938 0.38229,-3.8125 0.83273,-6.5625 0.7474,-4.56304 0.63696,-4.85008 -1.26376,-3.28445 -2.27648,1.87515 -2.97234,11.40945 -0.83273,11.40945 0.6875,0 1.25619,-0.70313 1.26376,-1.5625 z m -180.95126,-7.2967 c 1.20312,-2.11388 2.1875,-4.88961 2.1875,-6.16833 0,-1.27871 0.5625,-2.67257 1.25,-3.09747 0.6875,-0.4249 1.25,-2.0331 1.25,-3.57377 0,-1.54068 0.49905,-3.3356 1.10901,-3.98873 0.60995,-0.65313 2.07244,-5.125 3.24996,-9.9375 1.17753,-4.8125 2.56952,-9.3125 3.0933,-10 1.58558,-2.08112 2.58554,-12.95409 1.26637,-13.76939 -0.67025,-0.41424 -1.21864,0.27989 -1.21864,1.54249 0,1.2626 -0.76394,3.40518 -1.69765,4.76126 -0.9337,1.3561 -2.11031,4.71564 -2.61467,7.46564 -0.50438,2.75 -1.64863,6.40625 -2.54278,8.125 -0.89415,1.71875 -2.91259,7.34375 -4.4854,12.5 -1.57282,5.15625 -3.32089,9.90937 -3.88459,10.5625 -1.2838,1.48746 -1.35752,9.4403 -0.0874,9.4296 0.51562,-0.004 1.92187,-1.73744 3.125,-3.8513 z m 183.4375,-16.1408 c 0,-0.6875 -0.5625,-1.25 -1.25,-1.25 -0.6875,0 -1.25,0.5625 -1.25,1.25 0,0.6875 0.5625,1.25 1.25,1.25 0.6875,0 1.25,-0.5625 1.25,-1.25 z m 1.23086,-16.01128 c 0.0113,-1.60946 -0.53382,-2.54451 -1.23086,-2.11372 -0.6875,0.4249 -1.24139,2.56747 -1.23086,4.76127 0.0146,3.03509 0.30885,3.54044 1.23086,2.11373 0.66645,-1.03125 1.22034,-3.17383 1.23086,-4.76128 z m -83.73086,-57.73873 c 0,-0.6875 -0.5625,-1.25 -1.25,-1.25 -0.6875,0 -1.25,0.5625 -1.25,1.25 0,0.6875 0.5625,1.25 1.25,1.25 0.6875,0 1.25,-0.5625 1.25,-1.25 z m -59.49618,-21.25 c 0.36192,-3.78125 0.342,-5.75 -0.0443,-4.375 -0.38623,1.375 -1.21015,3.03437 -1.83091,3.6875 -0.62077,0.65312 -1.12867,3.15625 -1.12867,5.5625 0,6.71954 2.24244,3.08023 3.00382,-4.875 z m 34.04849,-33.4375 c -0.42614,-2.57812 -0.78098,-6.54882 -0.78855,-8.82377 -0.0235,-7.07479 -2.17444,-3.19382 -2.34564,4.23233 -0.17007,7.37711 0.35653,9.27894 2.5692,9.27894 0.8526,0 1.05805,-1.7045 0.56499,-4.6875 z m 122.94769,-2.8125 c 0,-0.6875 -0.5625,-1.25 -1.25,-1.25 -0.6875,0 -1.25,0.5625 -1.25,1.25 0,0.6875 0.5625,1.25 1.25,1.25 0.6875,0 1.25,-0.5625 1.25,-1.25 z m -301.1599,204.84767 c -2.17116,-3.57019 -2.33481,-6.09716 -1.92261,-29.6875 0.28651,-16.39786 1.18873,-29.88081 2.47822,-37.03516 1.11524,-6.1875 2.48314,-15.75 3.0398,-21.25 1.3909,-13.74265 5.04708,-36.66645 6.42682,-40.29543 0.62572,-1.64578 1.13767,-5.09321 1.13767,-7.66096 0,-7.0707 5.0135,-10.29582 8.83919,-5.68616 0.90491,1.09036 4.07301,3.12363 7.04022,4.51838 6.45228,3.03293 7.72122,6.49222 5.38322,14.67535 -2.76435,9.67541 -6.62418,38.01838 -6.0227,44.22517 0.3672,3.7892 0.63692,3.52396 5.81056,-5.71385 2.98401,-5.32813 5.93714,-9.6875 6.5625,-9.6875 0.62535,0 1.13701,-0.65388 1.13701,-1.45306 0,-2.73775 15.85255,-26.07643 20,-29.4447 2.49756,-2.02835 9.35329,-2.01265 11.04462,0.0252 2.47919,2.98722 -1.38149,10.69751 -9.79462,19.56106 -5.29861,5.5823 -35,50.15558 -35,52.52497 0,0.70754 -0.4397,1.28643 -0.9771,1.28643 -1.0266,0 -2.50399,4.86851 -5.87951,19.375 -1.11983,4.8125 -2.56645,10.47744 -3.21472,12.58875 -0.64827,2.11131 -1.18714,5.20506 -1.1975,6.875 -0.0238,3.82379 -2.65758,11.48649 -4.86066,14.14104 -2.78244,3.35264 -7.37051,2.49172 -10.03041,-1.88213 z M 19.581673,317.088 c -1.137805,-1.25726 -2.068735,-3.19281 -2.068735,-4.30122 0,-1.10843 -0.5625,-2.36295 -1.25,-2.78785 -0.6875,-0.4249 -1.25,-3.29338 -1.25,-6.37439 0,-6.79316 3.944366,-13.04261 7.624485,-12.08025 2.809619,0.73474 3.045545,-0.77621 0.635781,-4.07176 -1.456391,-1.99174 -2.058221,-2.11491 -3.695245,-0.7563 -3.193208,2.65013 -4.225137,0.66797 -2.81545,-5.40796 1.308764,-5.64095 2.378875,-6.85581 3.88803,-4.41395 0.995444,1.61066 3.112399,0.36592 3.112399,-1.83005 0,-0.91417 -1.893239,-2.01729 -4.207196,-2.45139 -7.610273,-1.42769 -7.89182,-0.8937 -7.774114,14.74485 0.06687,8.88487 -0.423422,14.77685 -1.32168,15.88289 -0.7853937,0.96707 -1.6605297,2.88331 -1.9447487,4.25831 -0.41478,2.00665 -1.029585,1.46414 -3.115426,-2.74906 -2.5418828,-5.13438 -2.5618578,-5.73529 -0.914119,-27.5 0.926501,-12.23802 2.322245,-25.06344 3.101653,-28.50094 0.779406,-3.4375 2.162598,-14.125 3.0737577,-23.75 1.895908,-20.02734 3.788948,-35.44304 5.679483,-46.25001 0.721612,-4.125 1.771451,-12.05569 2.332975,-17.62375 0.561522,-5.56806 1.636392,-12.03681 2.3886,-14.375 0.752207,-2.33819 1.97114,-9.2251 2.708741,-15.30426 0.737602,-6.07915 2.200411,-15.07915 3.250689,-20 1.050277,-4.92084 2.317732,-12.040738 2.816566,-15.821988 0.498833,-3.78125 1.585985,-8.103645 2.415894,-9.605324 0.829909,-1.501677 1.528685,-4.876677 1.552836,-7.5 0.02415,-2.623321 0.905264,-8.425926 1.958028,-12.894676 1.052763,-4.46875 2.412425,-10.9375 3.021469,-14.375 0.609045,-3.4375 1.864466,-8.322072 2.789826,-10.854606 2.834642,-7.757871 4.608547,-4.207362 4.978897,9.96537 0.222331,8.508291 0.806737,12.742687 1.759859,12.751317 2.080881,0.01884 2.747136,-3.778849 4.183719,-23.847424 1.717278,-23.989791 1.616134,-23.639657 6.828871,-23.639657 3.169128,0 4.471099,-0.643213 5.06042,-2.5 1.685372,-5.310139 7.75024,-1.157405 6.365769,4.358767 -0.433619,1.727678 -1.340183,3.141233 -2.014584,3.141233 -2.691511,0 -0.291576,9.605246 3.35745,13.4375 3.370455,3.539695 7.916365,0.718051 7.916365,-4.913685 0,-2.697994 0.725032,-3.658156 3.238725,-4.289053 4.219911,-1.059131 6.370393,1.211935 12.945257,13.671135 2.83882,5.379494 5.66775,10.723244 6.2865,11.875 2.01082,3.74296 9.07663,19.559349 9.31189,20.844103 0.12589,0.6875 1.46386,3.993379 2.97326,7.346398 1.5094,3.353018 2.74437,6.835447 2.74437,7.738728 0,0.903283 0.57168,1.995647 1.27039,2.427475 0.69871,0.43183 0.97065,1.270145 0.60428,1.862924 -0.36636,0.592779 0.14004,2.944536 1.12533,5.226128 0.98529,2.281591 2.68211,6.202105 3.77073,8.712255 1.08859,2.51015 1.97927,5.44362 1.97927,6.51882 0,1.0752 0.84883,4.45506 1.88629,7.51082 1.03745,3.05575 2.13006,7.15353 2.42804,9.10618 0.70756,4.63683 2.546,11.43287 4.25729,15.73777 1.44474,3.63431 5.17838,4.75106 5.17838,1.54887 0,-2.2415 3.07575,-9.26505 11.4894,-26.23637 13.5951,-27.422915 28.58051,-49.075383 48.66241,-70.312498 7.47037,-7.900101 10.56061,-9.417868 11.92674,-5.857788 1.13489,2.957457 -0.60009,5.836838 -15.63699,25.951232 -15.95712,21.345345 -19.57267,26.880966 -18.35155,28.097305 0.48135,0.479464 2.00025,-0.534499 3.37534,-2.253249 1.37507,-1.71875 3.73027,-4.53125 5.23375,-6.25 1.50349,-1.71875 4.11561,-5.375 5.80472,-8.125 1.68912,-2.75 5.89489,-8.131635 9.34616,-11.959188 3.45126,-3.827553 9.93127,-11.102766 14.40002,-16.167139 11.96386,-13.558489 13.57497,-14.998673 16.77876,-14.998673 1.60333,0 3.66791,0.907056 4.58799,2.01568 1.44534,1.741514 1.11524,2.51392 -2.42684,5.678764 -5.29001,4.726635 -5.10534,9.180556 0.38068,9.180556 2.70953,0 4.09491,0.833809 5.19218,3.125 4.76745,9.954775 4.7273,9.672524 3.314,23.299905 -0.75563,7.285964 -1.98203,13.855356 -2.72532,14.598651 -0.7433,0.743294 -1.35145,4.014825 -1.35145,7.270072 0,3.25524 -0.6519,7.50211 -1.44866,9.43749 -1.41835,3.44525 -2.19513,7.82898 -4.7003,26.52603 -0.68219,5.09144 -1.82775,9.84456 -2.54569,10.5625 -0.71794,0.71794 -1.30535,3.96874 -1.30535,7.22397 0,3.25525 -0.58256,7.4509 -1.2946,9.32368 -1.34275,3.53172 -3.07953,12.99444 -4.85159,26.4337 -0.56574,4.29055 -1.61066,8.5093 -2.32206,9.375 -0.7114,0.8657 -1.58164,4.94901 -1.93388,9.07401 -0.35223,4.125 -1.5643,12 -2.6935,17.5 -3.46843,16.89386 -4.66503,25.79902 -4.99383,37.1642 -0.17608,6.086 -0.96939,11.70177 -1.79329,12.69452 -0.81265,0.97918 -1.60465,4.50529 -1.75999,7.8358 -0.22957,4.92192 0.22715,6.46497 2.4398,8.24298 1.49725,1.20312 3.33666,2.1875 4.0876,2.1875 1.70991,0 1.78711,2.09179 0.11538,3.125 -0.6875,0.4249 -1.25,1.75132 -1.25,2.94761 0,1.19629 -1.54688,4.60855 -3.4375,7.58281 -3.88989,6.11943 -1.85853,5.64999 -29.83474,6.89456 -13.83394,0.61542 -16.64631,0.42932 -17.99063,-1.19047 -0.87636,-1.05596 -1.37261,-2.0899 -1.10276,-2.29765 0.26984,-0.20775 2.55345,-1.61751 5.07468,-3.1328 4.88861,-2.93814 5.01151,-3.29756 6.68593,-19.55406 0.42488,-4.125 1.3066,-9.5633 1.95938,-12.08513 0.65277,-2.52181 1.69685,-10.39681 2.32016,-17.5 1.30133,-14.82958 4.49723,-37.93836 6.32649,-45.74531 0.68694,-2.93174 1.24899,-8.03277 1.24899,-11.33562 0,-3.30286 0.8031,-8.77916 1.78466,-12.16958 0.98157,-3.3904 2.38004,-10.94562 3.1077,-16.78937 0.72766,-5.84375 2.22144,-15.125 3.31949,-20.625 1.09805,-5.5 2.43235,-13.82965 2.96512,-18.51033 0.53278,-4.68067 1.6109,-9.15255 2.39585,-9.93749 0.78491,-0.78495 1.42714,-4.04324 1.42714,-7.24065 0,-3.19741 0.51607,-7.44429 1.14682,-9.4375 0.63076,-1.99322 1.48116,-6.01465 1.88977,-8.936528 1.25972,-9.007665 -2.66996,-7.064609 -12.64017,6.249998 -10.79432,14.41518 -17.89642,25.13171 -17.89642,27.00439 0,2.59562 2.28401,1.49736 5.09459,-2.44973 4.71246,-6.61803 12.19917,-13.61808 14.54341,-13.59802 1.23035,0.0105 3.05839,0.53869 4.0623,1.17369 2.045,1.29352 1.26921,2.44912 -8.0753,12.02876 -31.46329,32.25497 -44.84835,48.69798 -48.16173,59.16475 -1.90046,6.0035 -5.47511,10.11366 -8.79592,10.11366 -3.49554,0 -5.14601,-3.13499 -4.22765,-8.03025 0.69761,-3.71864 0.4773,-4.46975 -1.3111,-4.46975 -1.69204,0 -1.97559,0.69337 -1.33208,3.25736 0.91307,3.6379 -2.00246,9.24264 -4.80791,9.24264 -1.95152,0 -5.05423,-6.08269 -6.3761,-12.5 -0.49566,-2.40625 -1.43262,-5.03595 -2.08213,-5.84379 -0.64952,-0.80783 -1.32292,-2.80039 -1.49644,-4.42787 -0.17352,-1.6275 -0.61393,-3.4978 -0.97869,-4.15622 -0.36476,-0.65842 -1.91993,-5.41587 -3.45593,-10.57212 -1.536,-5.15625 -3.2629,-10.27359 -3.83756,-11.37185 -0.57465,-1.09828 -1.78404,-5.1764 -2.68753,-9.0625 -0.90348,-3.88611 -2.01469,-7.06565 -2.46935,-7.06565 -0.45466,0 -1.22084,-2.10938 -1.70262,-4.6875 -0.48179,-2.57812 -1.436562,-5.36598 -2.121732,-6.19524 -0.685165,-0.82926 -0.906904,-2.05602 -0.492753,-2.72613 0.414152,-0.67011 0.245094,-1.53229 -0.375683,-1.91595 -0.620778,-0.38366 -1.524039,-2.81315 -2.007248,-5.39887 -0.483208,-2.58572 -1.342572,-5.26381 -1.909697,-5.95131 -1.41924,-1.72048 -4.995149,-21.058506 -4.995149,-27.013083 0,-4.012995 -0.432357,-4.861915 -2.476185,-4.861915 -1.694773,0 -2.701628,1.084775 -3.19058,3.4375 -0.392918,1.890625 -1.5794,6.53125 -2.636628,10.3125 -1.057227,3.78125 -2.356556,8.974091 -2.887398,11.539648 -0.530841,2.56555 -1.542092,5.37805 -2.247224,6.25 -0.705131,0.87194 -1.679019,4.6791 -2.164195,8.46035 -0.485176,3.78125 -1.67316,8.5083 -2.639964,10.50455 -0.966805,1.99625 -1.761291,5.09 -1.765527,6.875 -0.0042,1.785 -0.786453,4.73801 -1.738259,6.56226 -0.951807,1.82425 -2.121198,6.68259 -2.598645,10.7963 -0.477447,4.11371 -1.66398,9.01358 -2.63674,10.88858 -0.97276,1.87498 -1.768655,5.27691 -1.768655,7.55982 0,2.2829 -0.605315,5.73424 -1.345145,7.66961 -0.73983,1.93539 -2.386044,9.14388 -3.658254,16.01888 -1.272209,6.875 -2.630949,13.34376 -3.019422,14.37501 -0.772946,2.05189 -4.848358,25.08654 -7.713598,43.59806 -0.997981,6.44769 -2.224927,12.35394 -2.726546,13.125 -0.50162,0.77106 -1.249842,5.62069 -1.662718,10.77694 -1.14167,14.2579 -4.977036,40.34902 -6.293388,42.8125 -1.516982,2.83894 -5.14556,2.79293 -7.762194,-0.0984 z m 4.181265,-8.96407 c 0,-0.6875 -0.595698,-1.25 -1.323771,-1.25 -0.728074,0 -0.976128,0.5625 -0.551229,1.25 0.424899,0.6875 1.020595,1.25 1.323771,1.25 0.303176,0 0.551229,-0.5625 0.551229,-1.25 z m 170.000002,-7.5 c 2.13005,-2.13005 2.50805,-4.21101 2.55444,-14.0625 0.0299,-6.35938 0.64272,-14.09375 1.36173,-17.1875 2.44204,-10.50746 2.78914,-16.61004 0.90913,-15.98402 -0.93516,0.31141 -1.87914,1.64457 -2.09772,2.96261 -0.21858,1.31802 -1.26968,4.36516 -2.33579,6.77141 -4.29333,9.69025 -5.1911,12.00575 -5.81584,15 -0.3586,1.71875 -1.24022,5.375 -1.95916,8.125 -0.71893,2.75 -1.32056,7.10937 -1.33696,9.6875 -0.0164,2.57812 -0.59233,4.6875 -1.27983,4.6875 -0.6875,0 -1.25,0.5625 -1.25,1.25 0,2.32071 8.6392,1.3608 11.25,-1.25 z m -170.000002,-1.25 c 0,-0.6875 -0.248053,-1.25 -0.551229,-1.25 -0.303176,0 -0.898872,0.5625 -1.323771,1.25 -0.424899,0.6875 -0.176845,1.25 0.551229,1.25 0.728073,0 1.323771,-0.5625 1.323771,-1.25 z m 1.605101,-31.5625 c 0.375215,-2.23438 1.071495,-5.04688 1.547289,-6.25 0.710582,-1.79683 0.178146,-2.1875 -2.981233,-2.1875 -2.824238,0 -4.583045,-0.99649 -6.618808,-3.75 -3.102379,-4.19619 -4.802349,-4.78414 -4.802349,-1.66093 0,2.58974 3.556432,6.66093 5.818735,6.66093 0.924695,0 1.681265,0.5625 1.681265,1.25 0,0.6875 0.84375,1.25 1.875,1.25 2.221298,0 2.309792,0.60194 0.567195,3.85801 -1.306151,2.44057 -0.695789,4.89199 1.218024,4.89199 0.556971,0 1.319668,-1.82813 1.694882,-4.0625 z m -9.903068,-4.0625 c -0.395728,-1.03125 -1.161643,-1.875 -1.702033,-1.875 -0.54039,0 -1.306305,0.84375 -1.702032,1.875 -0.486971,1.26902 0.06311,1.875 1.702032,1.875 1.638925,0 2.189002,-0.60598 1.702033,-1.875 z m 174.547969,-9.59875 c 0,-3.89884 0.31827,-5.28445 4.11184,-17.90125 1.03356,-3.4375 2.56888,-9.34375 3.41181,-13.125 0.84292,-3.78125 1.98382,-8 2.53531,-9.375 2.63625,-6.57273 4.25953,-18.12501 2.54686,-18.12501 -1.94345,0 -3.44895,4.3975 -4.52123,13.20635 -0.49669,4.08026 -1.62694,8.84435 -2.51167,10.58686 -0.88472,1.7425 -2.00121,5.39875 -2.48106,8.125 -0.47985,2.72624 -1.6065,6.13154 -2.50364,7.56732 -2.21658,3.5474 -3.908,23.01448 -1.99963,23.01448 0.77627,0 1.41141,-1.78819 1.41141,-3.97375 z M 28.030342,248.43643 c 0.435005,-2.57813 1.31539,-8.57196 1.95641,-13.31965 0.64102,-4.74769 1.752897,-9.21956 2.470839,-9.9375 0.717941,-0.71794 1.305347,-4.32358 1.305347,-8.01253 0,-3.68894 0.584853,-7.79998 1.299671,-9.13563 1.238483,-2.31413 2.385265,-8.78798 4.929135,-27.82606 0.627898,-4.69913 1.666678,-9.19913 2.3084,-10 0.641724,-0.80088 1.49499,-4.83114 1.896148,-8.95614 0.401157,-4.125 1.630004,-12 2.730771,-17.5 1.100766,-5.5 2.440781,-13.09375 2.977809,-16.875 0.537028,-3.78125 1.604263,-9.40625 2.371635,-12.5 0.76737,-3.09375 2.039182,-9.84375 2.826249,-14.999998 0.787067,-5.15625 2.213839,-12.654806 3.170606,-16.663459 0.956767,-4.008652 1.739576,-8.703329 1.739576,-10.432616 0,-1.729286 0.886906,-6.195009 1.970904,-9.923829 2.162232,-7.437816 2.02614,-9.69187 -0.490733,-8.127886 -0.904656,0.562154 -2.144271,4.059753 -2.7547,7.772444 -1.941609,11.809047 -3.547456,19.811572 -4.809056,23.965277 -0.674062,2.219288 -1.855595,7.972569 -2.625629,12.785069 -0.770032,4.812498 -2.437281,14.093748 -3.704996,20.624998 -3.124345,16.09659 -8.67526,46.04363 -10.658069,57.5 -0.892416,5.15625 -2.216211,11.90625 -2.941767,15 -1.732439,7.38707 -6.257274,34.48136 -7.662957,45.88506 -0.610846,4.95554 -1.489506,9.6231 -1.952579,10.37236 -1.025028,1.65853 0.112637,4.99259 1.703593,4.99259 0.633861,0 1.508388,-2.10938 1.943393,-4.6875 z M 17.512938,237.42515 c 0,-1.67817 -0.5625,-3.05122 -1.25,-3.05122 -0.6875,0 -1.25,1.7207 -1.25,3.82377 0,2.23088 0.520721,3.50195 1.25,3.05123 0.6875,-0.4249 1.25,-2.1456 1.25,-3.82378 z M 209.95445,183.59002 c 1.40717,-3.18114 2.55849,-7.36328 2.55849,-9.29362 0,-1.93035 0.54672,-4.94772 1.21494,-6.70526 1.19634,-3.14661 0.59446,-6.96722 -1.09757,-6.96722 -1.47418,0 -3.86737,8.05996 -3.86737,13.02484 0,5.01403 -3.23859,13.22516 -5.2162,13.22516 -0.64974,0 -0.8337,0.5625 -0.4088,1.25 1.69737,2.7464 4.38761,0.95704 6.81651,-4.5339 z m -75.17481,-3.99986 c 0.33201,-3.36185 -0.0236,-3.96624 -2.33329,-3.96624 -2.21591,0 -2.58417,0.52544 -1.97127,2.8125 0.41455,1.54687 0.76141,3.5625 0.7708,4.47916 0.035,3.42348 3.15743,0.48518 3.53376,-3.32542 z m -9.1417,-5.21624 c -1.24436,-1.375 -2.75758,-2.5 -3.36271,-2.5 -0.60514,0 -0.49817,1.125 0.23771,2.5 0.73587,1.375 2.2491,2.5 3.36271,2.5 1.7871,0 1.7592,-0.29344 -0.23771,-2.5 z m 1.875,-6.16863 c 0,-2.90913 -2.59595,-7.33707 -6.87046,-11.71903 -5.22479,-5.35614 -6.34937,-5.38184 -4.29665,-0.0982 0.77156,1.98597 1.55571,4.89491 1.74257,6.4643 0.47323,3.97451 1.51575,4.66127 4.00336,2.63718 1.89057,-1.53827 2.04105,-1.47878 1.29454,0.5118 -0.50746,1.35312 -0.35136,1.94752 0.39095,1.48873 0.67963,-0.42003 1.23569,-0.168 1.23569,0.56007 0,0.72808 0.5625,1.32378 1.25,1.32378 0.6875,0 1.25,-0.52589 1.25,-1.16863 z m 5.69231,-11.44028 c 1.07266,-1.7356 -1.30495,-4.18255 -3.0288,-3.11714 -1.43557,0.88723 -0.51636,4.47605 1.14645,4.47605 0.57338,0 1.42043,-0.61151 1.88235,-1.35891 z m -18.79231,-14.57859 c -0.90967,-6.11093 -1.43906,-7.44011 -2.52908,-6.35009 -1.08836,1.08836 0.9085,12.28759 2.19091,12.28759 0.74858,0 0.87959,-2.30039 0.33817,-5.9375 z m 38.68687,2.5 c 0.47185,-1.89063 1.55229,-4.28125 2.40098,-5.3125 0.8487,-1.03125 2.59791,-4.40625 3.88715,-7.5 1.28924,-3.09375 3.08227,-6.51304 3.98454,-7.59843 0.90225,-1.08538 1.64392,-2.49163 1.64816,-3.125 0.004,-0.63336 0.83398,-2.73573 1.84386,-4.67193 1.76122,-3.37667 1.72263,-3.50422 -0.9452,-3.125 -1.8788,0.26707 -2.91975,1.40943 -3.20783,3.52036 -0.23455,1.71875 -1.15633,3.96875 -2.04838,5 -0.89205,1.03125 -2.00059,3.65817 -2.46341,5.8376 -0.46283,2.17944 -2.76944,5.83569 -5.1258,8.125 -2.68373,2.60736 -4.28929,5.3688 -4.29763,7.39156 -0.0236,5.73503 3.00158,6.75543 4.32357,1.45834 z m 64.41313,2.34375 c 0,-0.60156 0.35156,-2.85156 0.78125,-5 1.142,-5.71003 -1.28164,-4.77969 -2.84935,1.09375 -1.07779,4.03797 -1.00723,5 0.36676,5 0.93574,0 1.70134,-0.49219 1.70134,-1.09375 z m -15.31267,-8.38559 c -1.19119,-1.1912 -3.57937,0.73825 -2.69163,2.17463 0.52765,0.85375 1.22683,0.83218 2.12455,-0.0655 0.73595,-0.73595 0.99114,-1.68504 0.56708,-2.10909 z m 3.30393,-3.7479 c 0.41732,-1.08747 0.7622,-3.19685 0.76644,-4.6875 0.004,-1.49064 0.84799,-4.32144 1.875,-6.29064 1.02701,-1.96922 1.88566,-4.78172 1.90811,-6.25 0.0224,-1.46829 1.12908,-5.76337 2.45919,-9.54462 1.33011,-3.78125 2.43675,-8.577963 2.45919,-10.659366 0.0225,-2.081401 0.8112,-4.893901 1.75279,-6.25 0.94158,-1.356097 2.01078,-4.434382 2.37601,-6.840632 0.36521,-2.40625 1.55874,-8.289205 2.65228,-13.073234 1.30895,-5.72641 1.56646,-9.120039 0.75368,-9.932816 -1.60279,-1.602793 -4.57139,2.35443 -5.53705,7.38105 -0.39623,2.0625 -1.57746,5.392666 -2.62496,7.400368 -1.04752,2.007702 -1.9535,6.226452 -2.01332,9.375 -0.0598,3.148548 -0.83755,8.255882 -1.72828,11.349632 -2.62176,9.106018 -4.34034,17.308888 -4.34034,20.716708 0,1.74946 -0.46875,2.89113 -1.04166,2.53705 -0.57293,-0.35408 -1.12959,0.0346 -1.23704,0.86373 -1.46084,11.27223 -1.60882,15.88251 -0.50983,15.88251 0.69908,0 1.61249,-0.88975 2.02979,-1.97724 z m -31.7867,-28.593 c 2.05905,-2.48101 0.43719,-5.06099 -1.94085,-3.0874 -1.94692,1.61581 -2.39417,4.90764 -0.66676,4.90764 0.60331,0 1.77674,-0.81911 2.60761,-1.82024 z m -55.75252,-2.55476 c 0.39572,-1.03125 0.17465,-1.875 -0.49127,-1.875 -0.66592,0 -1.21077,0.84375 -1.21077,1.875 0,1.03125 0.22107,1.875 0.49126,1.875 0.2702,0 0.81504,-0.84375 1.21078,-1.875 z M 42.512938,91.330297 c 0,-2.361495 0.512964,-5.642824 1.13992,-7.291842 0.626956,-1.649019 0.705235,-3.701552 0.173954,-4.561182 -1.310778,-2.120883 -2.096315,0.09424 -3.218474,9.075685 -0.61169,4.895805 -0.454629,7.070964 0.510571,7.070964 0.766717,0 1.394029,-1.932131 1.394029,-4.293625 z m 63.750002,2.344854 c 0,-1.071824 -0.5625,-1.601128 -1.25,-1.176229 -0.6875,0.424899 -1.25,1.301845 -1.25,1.948771 0,0.646926 0.5625,1.176229 1.25,1.176229 0.6875,0 1.25,-0.876948 1.25,-1.948771 z m 98.59995,-9.855943 c 0.73276,-2.711342 1.05691,-5.205092 0.72034,-5.541667 -1.35472,-1.354707 -3.30629,2.352806 -3.95187,7.507526 -0.83372,6.65708 1.24248,5.394055 3.23153,-1.965859 z m -102.88287,2.087451 c -2.1597,-2.062777 -2.19322,-2.029249 -0.76182,0.76182 0.82351,1.605758 1.84011,2.57674 2.25911,2.157739 0.419,-0.419001 -0.25478,-1.732802 -1.49729,-2.919559 z M 92.767298,59.381826 c -1.812679,-3.185568 -5.25436,-5.208857 -5.25436,-3.088925 0,1.767345 4.233153,6.831021 5.710622,6.831021 1.29586,0 1.19299,-0.843742 -0.456262,-3.742096 z M 86.403563,37.764547 c -1.020834,-1.020834 -1.390625,-0.88095 -1.390625,0.526041 0,2.484822 1.680879,4.165699 2.302084,2.302084 0.263541,-0.790625 -0.146615,-2.063281 -0.911459,-2.828125 z M 62.292093,28.95784 c 0.584929,-3.016027 -1.861042,-2.567787 -2.660008,0.487463 -0.427751,1.635723 -0.139668,2.394005 0.79171,2.083916 0.805279,-0.268105 1.646013,-1.425226 1.868298,-2.571379 z M 1042.2907,313.21739 c -5.6206,-4.42122 -7.3085,-9.79231 -6.5532,-20.85372 0.6115,-8.95479 -0.5607,-14.82017 -2.5619,-12.81895 -0.3979,0.39786 -1.068,4.60031 -1.4892,9.3388 -0.4212,4.73847 -1.3471,9.35104 -2.0576,10.25013 -4.0384,5.11038 -26.2075,8.55624 -42.9769,6.68009 -7.99859,-0.89487 -11.0929,-1.84951 -14.55545,-4.49052 -11.43806,-8.72423 -16.53505,-27.6248 -13.44362,-49.85138 0.74635,-5.36605 2.04411,-10.98641 2.8839,-12.48969 3.53495,-6.32772 4.96433,-12.02448 5.23357,-20.85822 l 0.28574,-9.375 6.12139,-3.34651 c 3.36676,-1.84059 9.51644,-3.9615 13.66595,-4.71311 9.76838,-1.7694 26.61302,-0.11375 35.39732,3.47918 4.9054,2.00642 6.728,2.29959 7.0904,1.14053 0.2683,-0.85805 0.8348,-7.1851 1.2589,-14.0601 0.4241,-6.875 1.558,-17 2.5197,-22.5 0.9618,-5.5 2.7009,-17.03125 3.8646,-25.625 1.1638,-8.59375 2.6582,-17.875 3.321,-20.625 0.6628,-2.75 1.6228,-8.70277 2.1334,-13.22837 0.5105,-4.5256 1.3688,-8.9412 1.9073,-9.812444 0.5384,-0.871243 1.4176,-4.762225 1.9536,-8.64663 1.7364,-12.583285 3.8117,-23.016834 5.0314,-25.295885 0.6556,-1.225024 1.1941,-3.52992 1.1967,-5.121993 0.01,-4.4063 4.5436,-11.019676 7.5591,-11.019676 8.0477,0 9.8963,6.096847 6.924,22.835595 -1.1269,6.346672 -2.5809,16.883155 -3.231,23.414405 -0.6501,6.531248 -1.7444,15.568598 -2.4318,20.083008 -0.6874,4.5144 -2.1153,17.65398 -3.173,29.19907 -1.0578,11.54507 -2.1677,21.38665 -2.4666,21.87016 -0.9726,1.57372 -7.1103,92.46054 -6.6305,98.18482 0.2564,3.05901 1.3423,6.56896 2.4132,7.7999 1.0709,1.23093 2.2771,5.19061 2.6804,8.79931 0.4034,3.6087 1.9107,9.22266 3.3496,12.47549 2.2562,5.10056 2.3936,6.34751 0.9985,9.06374 -0.8897,1.73222 -1.8998,3.43076 -2.2446,3.77451 -0.3448,0.34375 -1.5709,2.3125 -2.7246,4.375 -2.5855,4.62239 -6.9131,5.37963 -11.2497,1.96846 z m -40.0732,-21.26306 c 6.9431,-3.7413 11.642,-5.34719 17.483,-5.9749 6.3658,-0.68413 8.0135,-1.81117 5.1948,-3.55325 -0.7522,-0.46491 -1.0866,-2.31599 -0.743,-4.1135 0.8735,-4.56919 -1.4859,-36.31642 -2.8945,-38.94848 -1.5721,-2.93746 -8.8573,-6.24027 -13.7646,-6.24027 -2.2093,0 -6.6243,1.38847 -9.81104,3.0855 -3.1868,1.69702 -8.88797,4.22687 -12.66922,5.62189 -4.89589,1.80625 -7.64694,3.73417 -9.55655,6.69721 -4.98491,7.7348 -3.80096,21.82644 2.6989,32.12289 5.43636,8.61173 8.44169,11.01738 14.42325,11.54518 3.05762,0.26982 5.98892,0.58883 6.51392,0.70894 0.5249,0.12013 1.93124,-0.30794 3.12504,-0.95121 z m 49.0455,-3.2054 c 0,-1.94445 -0.7083,-3.125 -1.875,-3.125 -1.1667,0 -1.875,1.18055 -1.875,3.125 0,1.94445 0.7083,3.125 1.875,3.125 1.1667,0 1.875,-1.18055 1.875,-3.125 z m -85.86941,-26.80439 -0.78746,-3.01126 -1.04901,2.83576 c -1.15718,3.12815 -0.12899,5.9397 1.55596,4.25475 0.58739,-0.58739 0.71362,-2.42305 0.28051,-4.07925 z m 71.11681,-20.39304 c 0.2914,-15.62598 0.01,-23.30611 -0.8426,-23.0238 -1.3865,0.45893 -3.7174,43.82705 -2.5229,46.93983 1.9071,4.96986 2.9675,-2.56583 3.3656,-23.91603 z m -42.71264,-9.37245 c 2.8039,-2.40076 2.0967,-4.05512 -1.73359,-4.05512 -3.60783,0 -5.80123,2.23792 -5.80123,5.91898 0,2.56866 0.31191,2.75205 2.59889,1.52809 1.42937,-0.76497 3.65056,-2.29136 4.93593,-3.39195 z m -12.53482,0.98458 c 2.16739,-1.66784 2.72635,-2.80489 1.82409,-3.71063 -1.61956,-1.62577 -6.82409,1.70467 -6.82409,4.3668 0,2.40023 1.23951,2.23755 5,-0.65617 z m 45.99266,-14.4147 c -0.2808,-2.8646 -1.4568,-4.33321 -4.9808,-6.22011 -2.5373,-1.35857 -4.9672,-2.1162 -5.3997,-1.68363 -0.4326,0.43256 0.4325,3.17581 1.9223,6.09611 l 2.7087,5.30965 -6.059,-0.77912 c -3.3325,-0.42853 -8.3091,-1.11546 -11.0591,-1.52653 -4.69354,-0.70158 -4.85134,-0.62707 -2.5736,1.21562 1.3345,1.07965 4.147,1.97386 6.25,1.98712 2.103,0.0132 6.6361,0.78405 10.0736,1.71286 5.5569,1.50147 6.4294,1.46413 7.8676,-0.33661 0.8896,-1.11395 1.4521,-3.71286 1.25,-5.77536 z m -40.54954,0.0232 c 0.66398,-1.7303 -2.06006,-1.92596 -10.75562,-0.77258 -0.51563,0.0684 -0.9375,0.68683 -0.9375,1.37433 0,2.07877 10.87935,1.51887 11.69312,-0.60178 z m -151.19859,84.6643 c -0.37237,-1.20313 -1.29685,-3.3125 -2.05443,-4.6875 -1.56945,-2.84854 -1.44281,-18.94523 0.26551,-33.75 0.63465,-5.5 1.77229,-15.52337 2.52809,-22.27418 0.75581,-6.7508 1.96609,-14.90704 2.6895,-18.125 0.72343,-3.21795 1.71824,-9.78832 2.21071,-14.60082 0.49246,-4.8125 1.52799,-10.15626 2.30116,-11.87501 0.77318,-1.71875 1.74493,-5.21629 2.15945,-7.77231 0.41453,-2.55603 1.43472,-5.36853 2.26708,-6.25 0.83237,-0.88148 2.24939,-3.00894 3.14894,-4.72769 0.89955,-1.71875 2.72635,-4.45131 4.05957,-6.07236 4.85918,-5.90824 9.02775,0.1499 8.04555,11.69249 -0.52337,6.15056 -0.2822,7.04073 2.38016,8.78518 2.69102,1.76322 3.44422,1.74842 8.21759,-0.16151 4.21423,-1.6862 7.4982,-1.94342 16.58083,-1.29872 6.69206,0.47501 11.91867,0.31188 12.7749,-0.39872 2.5385,-2.10677 15.70841,-4.97835 19.424,-4.23524 1.96996,0.394 4.84085,2.0566 6.37975,3.69469 2.65082,2.82168 2.71736,3.3568 1.26484,10.17376 -1.24128,5.82558 -4.74678,39.16433 -5.06107,48.13294 -0.13505,3.85345 2.12611,2.33672 2.79528,-1.875 0.355,-2.23438 1.30415,-6.3125 2.10921,-9.0625 0.80507,-2.75 2.12819,-11.1875 2.94024,-18.75 1.44506,-13.45746 1.54596,-13.75809 4.74286,-14.13013 4.23575,-0.49292 5.30604,2.28915 3.72567,9.68441 -2.55951,11.97712 -5.08454,24.75386 -6.43688,32.57072 -0.7731,4.46875 -1.96336,10.65625 -2.64504,13.75 -0.68166,3.09375 -1.73872,9.13584 -2.34903,13.42686 -0.6103,4.29103 -1.62045,8.79103 -2.24477,10 -0.62433,1.20898 -1.49285,4.18458 -1.93006,6.61245 -0.7766,4.31261 -4.41748,8.71069 -7.21099,8.71069 -0.91854,0 -1.17999,-1.93667 -0.76204,-5.64475 0.34994,-3.10461 0.14184,-5.95031 -0.46244,-6.32378 -0.60427,-0.37346 -1.09867,-1.8177 -1.09867,-3.20941 0,-1.48325 -0.6466,-2.30361 -1.5625,-1.98239 -1.02151,0.35828 -1.43469,2.53866 -1.19335,6.29752 0.28892,4.50008 -0.20314,6.3218 -2.26436,8.38302 -1.44843,1.44843 -3.58329,2.44376 -4.74414,2.21188 -1.87118,-0.37379 -2.08909,-2.40353 -1.92061,-17.88935 0.19826,-18.22369 2.23854,-43.08074 4.15267,-50.59274 0.61314,-2.40625 1.50969,-7.69855 1.99234,-11.76067 l 0.87752,-7.38569 -14.23128,0.85284 c -21.34603,1.27918 -29.95477,3.03986 -33.18409,6.78686 -6.92456,8.03459 -9.84956,22.47426 -11.19316,55.25666 -0.73484,17.92951 -1.53695,21.25 -5.13323,21.25 -1.45334,0 -1.78022,-1.53524 -1.5304,-7.1875 0.73154,-16.55127 -1.11091,-20.82312 -2.63405,-6.10725 -0.92749,8.96088 -4.72105,22.04475 -6.3917,22.04475 -0.61497,0 -1.42279,-0.98437 -1.79514,-2.1875 z m 86.58332,-76.875 c -0.34676,-0.85938 -0.63049,-0.15625 -0.63049,1.5625 0,1.71875 0.28373,2.42187 0.63049,1.5625 0.34676,-0.85938 0.34676,-2.26563 0,-3.125 z m -61.06115,-29.47127 c 0.27836,-2.8187 -0.13501,-3.96624 -1.42876,-3.96624 -2.28026,0 -3.63605,3.34155 -2.63522,6.4949 1.12904,3.55727 3.61576,2.00999 4.06398,-2.52866 z m -648.58079,91.92888 c -2.35551,-3.365 -1.77345,-7.63804 0.90065,-6.6119 1.02735,0.39424 2.42004,0.71679 3.09488,0.71679 1.59367,0 0.83396,7.81805 -0.80644,8.29884 -0.6875,0.20151 -2.12259,-0.88018 -3.18909,-2.40373 z"
     style="fill:#2ecc71;fill-opacity:1" />
</svg>
